<svg width="28" height="28" viewBox="0 0 28 28" fill="none" xmlns="http://www.w3.org/2000/svg">
<g clip-path="url(#clip0_277_854)">
<path d="M28 0V28H0V0H28ZM2.72266 25.2773H25.2773V2.72266H2.72266V25.2773ZM20.125 11.9531C20.8676 11.6376 21.7253 11.9835 22.041 12.7256C22.3564 13.4675 22.0107 14.324 21.2686 14.6396C18.8009 15.6881 16.3235 15.8935 13.8252 15.8936C11.3258 15.8936 10.1104 15.6661 6.8457 14.7686C6.06789 14.5547 5.61054 13.751 5.82422 12.9736C6.03823 12.1961 6.8431 11.7392 7.62109 11.9531C10.8225 12.8332 11.7302 12.9736 13.8252 12.9736C16.3865 12.9736 18.2819 12.7362 20.125 11.9531Z" fill="#FF4100"/>
</g>
<defs>
<clipPath id="clip0_277_854">
<rect width="28" height="28" fill="white"/>
</clipPath>
</defs>
</svg>
