<svg width="28" height="28" viewBox="0 0 28 28" fill="none" xmlns="http://www.w3.org/2000/svg">
<g clip-path="url(#clip0_277_853)">
<path d="M28 0V28H0V0H28ZM2.72266 25.2773H25.2773V2.72266H2.72266V25.2773ZM5.82422 17.6855C6.03823 16.908 6.8431 16.4512 7.62109 16.665C10.8227 17.5452 11.8883 17.7715 13.9834 17.7715C16.5449 17.7715 18.4039 17.7275 20.2471 16.9443C20.9895 16.6291 21.8474 16.9749 22.1631 17.7168C22.4788 18.4589 22.1322 19.3163 21.3896 19.6318C18.922 20.6802 16.4817 20.6914 13.9834 20.6914C11.484 20.6914 10.1104 20.378 6.8457 19.4805C6.06782 19.2665 5.61025 18.463 5.82422 17.6855ZM13.7021 11.4902C14.3315 11.3541 15.0172 11.4378 15.5996 11.7725C16.202 12.1187 16.7744 12.806 16.7744 13.7646C16.7744 13.7724 16.7744 13.7814 16.7744 13.791C16.7749 13.9612 16.7758 14.4178 16.6553 14.8721C16.5275 15.3535 16.1121 16.3336 14.9385 16.6016C14.9293 16.6037 14.9184 16.6065 14.9062 16.6094C14.6964 16.659 14.0588 16.8092 13.4014 16.5791C12.5675 16.2872 12.1857 15.6056 12.0068 15.2178V15.2168C11.5161 14.1525 11.9122 13.0927 12.5254 12.2773C12.6217 12.1494 12.7327 12.0379 12.8535 11.9443C13.0804 11.7238 13.3699 11.5621 13.7021 11.4902ZM14.0684 7.66895C16.5566 7.66893 17.922 7.96221 21.1855 8.80957C21.9665 9.01234 22.4353 9.80936 22.2324 10.5898C22.0295 11.3703 21.2321 11.8385 20.4512 11.6357C17.2485 10.8042 16.1746 10.5889 14.0684 10.5889C11.5072 10.5889 9.63351 10.6292 7.77734 11.374C7.02874 11.6743 6.17867 11.3115 5.87793 10.5635C5.57733 9.81527 5.93994 8.96466 6.68848 8.66406C9.14321 7.67906 11.5697 7.66896 14.0684 7.66895Z" fill="#FF4100"/>
</g>
<defs>
<clipPath id="clip0_277_853">
<rect width="28" height="28" fill="white"/>
</clipPath>
</defs>
</svg>
